<svg width="79" height="32" viewBox="0 0 79 32" fill="none" xmlns="http://www.w3.org/2000/svg">
<path d="M2.18275 23.516V30.7644H0V14.7438H10.6667L10.955 16.2676C10.9138 16.2676 10.9138 16.2676 10.8726 16.2265C10.7902 16.2265 10.749 16.2265 10.749 16.1853C10.5843 15.9382 9.96654 15.6911 8.93694 15.444C7.86615 15.1969 6.46589 15.0733 4.69498 15.0733H2.18275V23.1042H9.14286V23.4749H2.18275V23.516Z" fill="black"/>
<path d="M18.2857 26.2342C18.2857 25.8223 18.2857 25.4105 18.2857 24.9986C18.2857 24.5456 18.2445 24.1338 18.2445 23.6807C18.0798 24.0514 17.7915 24.2985 17.3796 24.5456C16.9678 24.7515 16.5148 24.9574 16.0206 25.1222C15.5263 25.2869 14.991 25.4517 14.4556 25.5752C13.9202 25.7399 13.3848 25.9047 12.9318 26.1518C12.4787 26.3989 12.1081 26.6872 11.8198 27.0578C11.5315 27.4285 11.3668 27.9227 11.3668 28.4993C11.3668 29.1582 11.5315 29.6112 11.861 29.9407C12.1904 30.2702 12.6435 30.4349 13.22 30.4349C13.7966 30.4349 14.5379 30.2702 15.3204 29.8995C16.1441 29.5289 17.0502 28.9935 18.0386 28.2934C17.7915 28.5405 17.462 28.8287 17.0502 29.1582C16.6383 29.4877 16.1441 29.776 15.6087 30.0643C15.0733 30.3526 14.5379 30.5997 14.0025 30.7644C13.426 30.9703 12.9318 31.0527 12.4787 31.0527C12.1081 31.0527 11.6962 31.0115 11.3256 30.9291C10.9549 30.8468 10.5843 30.7232 10.2548 30.5173C9.92532 30.3114 9.67821 30.0643 9.47229 29.7348C9.26637 29.4053 9.14282 28.9523 9.14282 28.4169C9.14282 27.9639 9.26637 27.552 9.51348 27.2226C9.76058 26.8931 10.0901 26.6048 10.5019 26.3577C10.9137 26.1106 11.4079 25.9047 11.9433 25.7399C12.4787 25.5752 13.0141 25.4105 13.5907 25.2869C14.1673 25.1222 14.7027 24.9986 15.2381 24.8751C15.7735 24.7515 16.2677 24.5868 16.6795 24.4221C17.1325 24.2573 17.462 24.0514 17.7503 23.8455C17.9974 23.5984 18.1621 23.3513 18.2033 23.0218C18.1209 22.5276 18.0386 22.0746 17.8738 21.6215C17.7503 21.1685 17.5444 20.7979 17.2973 20.4684C17.0502 20.1389 16.7207 19.8918 16.35 19.6859C15.9794 19.48 15.4852 19.4388 14.9498 19.4388C14.1261 19.48 13.5083 19.5623 13.0965 19.7271C12.6846 19.8918 12.3964 20.0977 12.1904 20.3448C11.9845 20.5919 11.9433 20.839 11.9433 21.1273C11.9433 21.4156 11.9433 21.6627 11.9433 21.9098C11.9433 22.1981 11.861 22.404 11.6962 22.5688C11.5315 22.7335 11.3256 22.7747 11.0785 22.7747C10.8314 22.7747 10.5843 22.6923 10.3372 22.4864C10.0901 22.2805 10.0077 22.0334 10.0077 21.7039C10.0077 21.2509 10.2136 20.839 10.5843 20.5096C10.9549 20.1801 11.4491 19.8918 11.9845 19.6859C12.5199 19.48 13.0965 19.3152 13.6731 19.2329C14.2496 19.1505 14.7027 19.1093 15.0733 19.1093C16.2265 19.1093 17.1737 19.2741 17.8738 19.6035C18.574 19.933 19.1094 20.386 19.48 20.9214C19.8507 21.4568 20.0978 22.1157 20.2213 22.8571C20.3449 23.5984 20.3861 24.3397 20.3861 25.1634V30.8056H18.3269V26.2342H18.2857Z" fill="black"/>
<path d="M24.9163 29.9407C25.1222 30.229 25.4517 30.4349 25.9047 30.5585C26.3577 30.682 26.8108 30.7644 27.3461 30.7644C27.8404 30.7644 28.3757 30.7232 28.87 30.5997C29.4053 30.4761 29.8584 30.3114 30.2702 30.1055C30.6821 29.8995 31.0527 29.6524 31.2998 29.323C31.5881 29.0347 31.7117 28.664 31.7117 28.2522C31.7117 27.758 31.5057 27.3461 31.0527 27.0579C30.5997 26.7696 30.0231 26.5225 29.3642 26.3165C28.7052 26.1106 27.9639 25.9047 27.1814 25.74C26.3989 25.5752 25.6576 25.3281 24.9987 25.081C24.3397 24.7927 23.7631 24.4633 23.3101 24.0102C22.8571 23.5572 22.6512 22.9806 22.6512 22.2805C22.6512 21.6216 22.8159 21.0862 23.1454 20.6743C23.4748 20.2625 23.9279 19.933 24.4221 19.6859C24.9575 19.4388 25.4929 19.2741 26.1106 19.1917C26.7284 19.1093 27.2638 19.0681 27.7992 19.0681C28.0463 19.0681 28.3757 19.1093 28.7876 19.1505C29.1994 19.1917 29.6113 19.3153 29.9819 19.48C30.3526 19.6447 30.7232 19.8095 31.0115 20.0566C31.2998 20.3037 31.4646 20.6331 31.4646 21.0038C31.4646 21.2509 31.3822 21.4568 31.1763 21.6216C30.9703 21.7863 30.7644 21.8687 30.5173 21.8687C30.1878 21.8687 29.9819 21.7863 29.8172 21.6627C29.6525 21.5392 29.5701 21.3745 29.4877 21.1685C29.4053 21.0038 29.3642 20.7979 29.323 20.592C29.2818 20.386 29.2406 20.2213 29.1171 20.0977C28.9111 19.8506 28.664 19.6447 28.4169 19.5624C28.1286 19.48 27.7992 19.3976 27.4285 19.3976C27.0167 19.3976 26.6048 19.4388 26.193 19.5212C25.74 19.6035 25.3693 19.7271 24.9987 19.8918C24.628 20.0566 24.3397 20.3037 24.1338 20.5508C23.8867 20.8391 23.8043 21.1685 23.8043 21.5392C23.8043 21.9098 23.9279 22.2393 24.2162 22.4864C24.4633 22.7335 24.8339 22.9394 25.2458 23.1454C25.6576 23.3101 26.1518 23.4748 26.7284 23.5984C27.2638 23.7219 27.8404 23.8455 28.4169 24.0102C28.9935 24.175 29.5701 24.3397 30.1055 24.5044C30.6409 24.6692 31.1351 24.9163 31.5881 25.1634C31.9999 25.4105 32.3706 25.74 32.6177 26.1106C32.8648 26.4813 33.0295 26.9755 33.0295 27.5109C33.0295 28.1286 32.8648 28.664 32.5353 29.1171C32.2059 29.5701 31.794 29.8995 31.2586 30.1878C30.7232 30.4761 30.1467 30.682 29.4877 30.8056C28.8288 30.9292 28.1286 31.0115 27.4285 31.0115C27.1814 31.0115 26.9343 31.0115 26.6048 30.9703C26.2754 30.9292 25.9459 30.9291 25.5752 30.8468C25.2046 30.8056 24.8751 30.7232 24.5045 30.5997C24.1338 30.5173 23.8455 30.3938 23.5572 30.229C23.2689 30.0643 23.063 29.8995 22.8571 29.6936C22.6924 29.4877 22.61 29.2406 22.61 28.9111C22.61 28.664 22.6924 28.4993 22.8983 28.3346C23.1042 28.1698 23.3101 28.0875 23.5572 28.0875C23.8867 28.0875 24.0926 28.1698 24.2573 28.2934C24.4221 28.4169 24.5045 28.5817 24.5868 28.7876C24.628 28.9935 24.7104 29.1582 24.7104 29.3642C24.7516 29.6524 24.8339 29.8172 24.9163 29.9407Z" fill="black"/>
<path d="M34.5946 14.7438L36.6538 13.6318V30.8056H34.5946V14.7438ZM36.9009 20.4684C37.0656 20.2213 37.3128 20.0154 37.5599 19.8506C37.807 19.6859 38.0952 19.5212 38.4247 19.4388C38.7542 19.3564 39.0425 19.2329 39.372 19.1917C39.7014 19.1505 39.9897 19.1093 40.3192 19.1093C41.2664 19.1093 42.0489 19.2329 42.6667 19.4388C43.2844 19.6447 43.8198 19.9742 44.1905 20.3448C44.6023 20.7155 44.8906 21.1685 45.0965 21.6627C45.3025 22.1569 45.4672 22.6923 45.5496 23.2277C45.6319 23.8043 45.6731 24.3397 45.7143 24.9575C45.7143 25.534 45.7143 26.1106 45.7143 26.646V30.8056H43.6551V26.4401C43.6551 26.0282 43.6551 25.6164 43.6551 25.1222C43.6551 24.628 43.6139 24.1338 43.5727 23.5984C43.5315 23.063 43.408 22.5688 43.2844 22.0746C43.1609 21.5804 42.955 21.1685 42.7079 20.7567C42.4608 20.386 42.0901 20.0565 41.6783 19.8506C41.2664 19.6035 40.731 19.48 40.0721 19.48C39.5367 19.48 39.1248 19.5212 38.7542 19.6035C38.3835 19.6859 38.0952 19.7683 37.8481 19.8506C37.601 19.933 37.3951 20.0565 37.2716 20.1801C37.1068 20.3037 36.9833 20.386 36.9009 20.4684Z" fill="black"/>
<path d="M50.3813 18.7386V30.7644H48.3221V19.8506L50.3813 18.7386Z" fill="black"/>
<path d="M47.7577 15.1962C47.4331 15.3669 46.6311 15.4427 46.6311 15.4427V15.7461C46.6311 15.7461 47.4331 15.822 47.7577 15.9926C48.0632 16.1633 48.3305 16.3908 48.5214 16.6942C48.7315 16.9976 48.8651 17.3389 48.9606 17.7371C49.0561 18.1354 49.0942 18.4786 49.0942 18.4786H49.3616C49.3616 18.4786 49.4558 17.9342 49.4952 17.7371C49.5907 17.3389 49.7434 16.9976 49.9344 16.6942C50.1253 16.3908 50.3735 16.1633 50.6981 15.9926C51.0227 15.822 51.8247 15.7461 51.8247 15.7461V15.4427C51.8247 15.4427 51.0227 15.3669 50.6981 15.1962C50.3926 15.0255 50.1253 14.798 49.9344 14.4946C49.7243 14.1912 49.5907 13.8499 49.4952 13.4517C49.4514 13.217 49.3616 12.619 49.3616 12.619H49.0942C49.0942 12.619 49.0055 13.3 48.9606 13.4517C48.8651 13.8499 48.7124 14.1912 48.5214 14.4946C48.3305 14.798 48.0823 15.0255 47.7577 15.1962Z" fill="black"/>
<path d="M52.8584 25.081C52.8584 24.2985 52.982 23.5572 53.2291 22.8159C53.4762 22.0746 53.888 21.4568 54.4234 20.8802C54.9588 20.3037 55.6177 19.8918 56.4002 19.5624C57.1827 19.2329 58.13 19.0681 59.2007 19.0681C60.2715 19.0681 61.2188 19.2329 62.0013 19.5624C62.7838 19.8918 63.4427 20.3449 63.9781 20.9214C64.5135 21.498 64.8841 22.1158 65.1312 22.8571C65.3783 23.5572 65.5019 24.3397 65.5019 25.081C65.5019 25.8635 65.3783 26.6048 65.1312 27.3461C64.8841 28.0874 64.4723 28.7052 63.9369 29.2818C63.4015 29.8584 62.7426 30.2702 61.9601 30.5997C61.1776 30.9291 60.2303 31.0939 59.2007 31.0939C58.1711 31.0939 57.1827 30.9291 56.4002 30.5997C55.6177 30.2702 54.9588 29.8172 54.4234 29.2406C53.888 28.664 53.5173 28.0463 53.2291 27.305C52.982 26.6048 52.8584 25.8635 52.8584 25.081ZM58.13 19.5624C57.4298 19.5624 56.8532 19.7271 56.4002 20.0566C55.9472 20.386 55.5765 20.7979 55.3294 21.2921C55.0823 21.7863 54.9588 22.4041 54.8764 23.063C54.8352 23.7219 54.8764 24.4221 55 25.1222C55.1235 25.8223 55.3294 26.4813 55.6589 27.1814C55.9472 27.8403 56.3179 28.4169 56.7709 28.9523C57.2239 29.4465 57.7181 29.8995 58.2947 30.1878C58.8713 30.5173 59.489 30.682 60.1892 30.682C60.8893 30.682 61.4247 30.5173 61.8777 30.1878C62.3307 29.8584 62.6602 29.4465 62.9073 28.9523C63.1544 28.4581 63.278 27.8403 63.3603 27.1814C63.4015 26.5225 63.3603 25.8223 63.2368 25.1222C63.1132 24.4221 62.8661 23.7631 62.5778 23.063C62.2895 22.4041 61.9189 21.8275 61.4659 21.2921C61.0128 20.7979 60.5186 20.3448 59.9421 20.0566C59.3655 19.7683 58.8301 19.5624 58.13 19.5624Z" fill="black"/>
<path d="M67.2684 19.8506L69.3276 18.7386V30.7644H67.2684V19.8506ZM69.5336 20.4684C69.6983 20.2213 69.9454 20.0154 70.1925 19.8506C70.4396 19.6859 70.7279 19.5211 71.0574 19.4388C71.3868 19.3564 71.6751 19.2329 72.0046 19.1917C72.3341 19.1505 72.6224 19.1093 72.9518 19.1093C73.8991 19.1093 74.6816 19.2329 75.2993 19.4388C75.9171 19.6447 76.4525 19.9742 76.8231 20.3448C77.235 20.7155 77.5233 21.1685 77.7292 21.6627C77.9351 22.1569 78.0998 22.6923 78.1822 23.2277C78.2646 23.8043 78.3058 24.3397 78.3469 24.9574C78.3469 25.534 78.3469 26.1106 78.3469 26.646V30.8056H76.2877V26.4401C76.2877 26.0282 76.2877 25.6164 76.2877 25.1222C76.2877 24.628 76.2466 24.1338 76.2054 23.5984C76.1642 23.063 76.0406 22.5688 75.9171 22.0746C75.7935 21.5803 75.5876 21.1685 75.3405 20.7567C75.0934 20.386 74.7227 20.0565 74.3109 19.8506C73.8991 19.6035 73.3637 19.48 72.7047 19.48C72.1693 19.48 71.7575 19.5211 71.3868 19.6035C71.0162 19.6859 70.7279 19.7682 70.4808 19.8506C70.2337 19.933 70.0278 20.0565 69.9042 20.1801C69.7395 20.3036 69.6159 20.386 69.5336 20.4684Z" fill="black"/>
<path d="M22.4813 0C24.1287 0 25.5701 0.247104 26.8057 0.700129C28.0412 1.19434 29.0708 1.8121 29.8945 2.59459C30.7181 3.37709 31.3359 4.24196 31.7477 5.27156C32.1596 6.25997 32.3655 7.28958 32.3655 8.36036C32.3655 9.38996 32.1596 10.4196 31.7477 11.408C31.3359 12.3964 30.7181 13.3024 29.8945 14.0849C29.0708 14.8674 28.0412 15.4852 26.8057 15.9794C25.5701 16.4736 24.1287 16.7207 22.4813 16.7207C20.834 16.7207 19.3925 16.4736 18.157 15.9794C16.9215 15.4852 15.8919 14.8674 15.0682 14.0849C14.2445 13.3024 13.6268 12.3964 13.2149 11.408C12.8031 10.4196 12.5972 9.38996 12.5972 8.36036C12.5972 7.28958 12.8031 6.30116 13.2149 5.27156C13.6268 4.28314 14.2445 3.37709 15.0682 2.59459C15.8919 1.8121 16.9215 1.19434 18.157 0.700129C19.3925 0.247104 20.834 0 22.4813 0ZM23.7169 16.1853C24.9524 16.1853 26.0232 15.9794 26.888 15.5264C27.7529 15.0734 28.453 14.4968 28.9884 13.7555C29.5238 13.0142 29.8533 12.1905 30.018 11.2432C30.1827 10.296 30.1827 9.34878 30.0592 8.36036C29.8945 7.37194 29.6062 6.42471 29.112 5.47748C28.6178 4.53024 28.0412 3.70656 27.2999 2.96525C26.5586 2.22394 25.6937 1.64736 24.6641 1.19434C23.6345 0.741313 22.5225 0.535393 21.287 0.535393C20.0103 0.535393 18.9395 0.741313 18.0746 1.19434C17.2098 1.64736 16.5097 2.22394 16.0154 2.96525C15.48 3.70656 15.1506 4.53024 14.9858 5.47748C14.8211 6.42471 14.8211 7.37194 14.9447 8.36036C15.1094 9.34878 15.3977 10.296 15.8507 11.2432C16.3037 12.1905 16.9215 13.0142 17.6628 13.7555C18.4041 14.4968 19.3102 15.0734 20.2986 15.5264C21.3282 15.9382 22.4813 16.1853 23.7169 16.1853Z" fill="black"/>
<path d="M34.5946 3.87125L36.6538 2.75928V9.59583C36.695 10.296 36.8185 10.9961 37.0245 11.6138C37.2304 12.2316 37.5187 12.8082 37.9305 13.2612C38.3012 13.7142 38.7542 14.1261 39.3308 14.3732C39.8662 14.6615 40.4839 14.785 41.1841 14.785C42.0489 14.785 42.7079 14.4967 43.2433 13.9613C43.7786 13.4259 44.1081 12.7258 44.314 11.9021C44.52 11.0785 44.5611 10.1724 44.4788 9.22517C44.3964 8.27794 44.1493 7.37189 43.7786 6.54821C43.408 5.72453 42.9138 5.0244 42.296 4.48901C41.6783 3.95361 40.9369 3.66533 40.1133 3.66533C39.825 3.66533 39.4955 3.70651 39.2072 3.83006C38.9189 3.95361 38.6306 4.07717 38.3424 4.2419C38.0541 4.40664 37.807 4.61256 37.601 4.81848C37.3539 5.0244 37.1892 5.2715 37.0656 5.47742C37.3951 4.7773 37.9305 4.20072 38.6306 3.74769C39.372 3.29467 40.1544 3.08875 40.9781 3.08875C42.0077 3.08875 42.8726 3.25349 43.6139 3.58296C44.3552 3.91243 44.9318 4.36546 45.426 4.94203C45.879 5.51861 46.2497 6.13637 46.4556 6.87768C46.6615 7.61899 46.7851 8.31912 46.7851 9.10162C46.7851 9.88412 46.6615 10.5842 46.4556 11.3256C46.2497 12.0257 45.879 12.6846 45.426 13.2612C44.973 13.8378 44.3552 14.2908 43.6139 14.6203C42.8726 14.9498 42.0077 15.1557 41.0193 15.1557C39.9485 15.1557 39.0425 14.9909 38.3424 14.7026C37.6422 14.4144 37.1068 14.0025 36.695 13.5083V20.5508H34.6358V3.87125H34.5946Z" fill="black"/>
<path d="M51.5953 7.04242C51.5953 7.82491 51.7189 8.60741 51.966 9.43109C52.2131 10.2548 52.5837 10.9549 53.0367 11.655C53.4898 12.314 54.0663 12.8494 54.7253 13.2612C55.3842 13.673 56.1256 13.879 56.908 13.879C57.6494 13.879 58.3083 13.7142 58.8849 13.4259C59.4615 13.0965 59.9557 12.7258 60.3675 12.314C60.7793 11.9021 61.1088 11.4491 61.3147 11.0373C61.5618 10.6254 61.6854 10.296 61.6854 10.09C61.6442 10.6254 61.4383 11.202 61.1088 11.7374C60.7793 12.2728 60.3675 12.767 59.8321 13.22C59.2967 13.673 58.7201 14.0025 58.02 14.2908C57.3199 14.5379 56.5786 14.7027 55.7961 14.7027C54.7253 14.7027 53.7781 14.5379 52.9956 14.2084C52.2131 13.879 51.5541 13.4259 51.0187 12.8494C50.4833 12.2728 50.1127 11.655 49.8244 10.9137C49.5773 10.2136 49.4537 9.43109 49.4537 8.68978C49.4537 7.66018 49.6185 6.79531 49.9479 6.054C50.2774 5.31269 50.7304 4.69493 51.2658 4.20072C51.8012 3.70651 52.419 3.33585 53.1191 3.12993C53.8192 2.88283 54.5194 2.75928 55.2195 2.75928C55.7549 2.75928 56.2903 2.84165 56.7845 3.00638C57.3199 3.17112 57.7729 3.41822 58.2259 3.74769C58.679 4.07717 59.0496 4.44782 59.3791 4.85966C59.7086 5.31269 59.9557 5.76571 60.1616 6.3011C60.244 6.54821 60.2028 6.75413 60.0792 6.91887C59.9557 7.0836 59.7497 7.16597 59.4615 7.16597H51.5953V7.04242ZM54.8077 3.04757C54.2723 3.04757 53.8192 3.12993 53.4074 3.33585C52.9956 3.54177 52.6661 3.78888 52.419 4.11835C52.1719 4.44782 51.966 4.85966 51.8012 5.2715C51.6777 5.72453 51.5953 6.17755 51.5541 6.67176H58.3083C58.2259 6.38347 58.1024 6.054 57.9377 5.64216C57.7729 5.23032 57.5258 4.81848 57.2375 4.44782C56.9492 4.07717 56.6198 3.74769 56.2079 3.45941C55.7961 3.17112 55.3019 3.04757 54.8077 3.04757Z" fill="black"/>
<path d="M62.8037 3.74765L64.8629 2.63568V14.6614H62.8037V3.74765ZM65.11 4.36541C65.2748 4.11831 65.5219 3.91239 65.769 3.74765C66.0161 3.58291 66.3044 3.41818 66.6338 3.33581C66.9633 3.21226 67.2516 3.12989 67.5811 3.08871C67.9105 3.04752 68.1988 3.00634 68.5283 3.00634C69.4755 3.00634 70.258 3.12989 70.8758 3.33581C71.4935 3.54173 72.0289 3.8712 72.3996 4.24186C72.8114 4.61251 73.0997 5.06554 73.3056 5.55975C73.5116 6.05396 73.6763 6.58935 73.7587 7.12474C73.841 7.70132 73.8822 8.23671 73.9234 8.85447C73.9234 9.43105 73.9234 10.0076 73.9234 10.543V14.7026H71.8642V10.3371C71.8642 9.92526 71.8642 9.51342 71.8642 8.97802C71.8642 8.48381 71.823 7.98961 71.7818 7.45421C71.7406 6.91882 71.6171 6.42461 71.4935 5.9304C71.37 5.4362 71.1641 5.02436 70.917 4.61252C70.6699 4.24186 70.2992 3.91239 69.8874 3.66528C69.4755 3.41818 68.9401 3.29463 68.2812 3.29463C67.7458 3.29463 67.334 3.33581 66.9633 3.41818C66.5926 3.50055 66.3044 3.58291 66.0573 3.66528C65.8101 3.74765 65.6042 3.8712 65.4807 3.99475C65.3159 4.15949 65.1924 4.28304 65.11 4.36541Z" fill="black"/>
</svg>
